<svg id="Capa_1" enable-background="new 0 0 512 512" height="512" viewBox="0 0 512 512" width="512" xmlns="http://www.w3.org/2000/svg"><g><g><path d="m426.282 123.641c0-7.467 2.583-14.704 7.312-20.483l13.532-16.539c4.728-5.779 7.311-13.015 7.311-20.482v-11.396h-396.874v11.395c0 7.467 2.583 14.704 7.312 20.483l13.532 16.539c4.728 5.779 7.311 13.016 7.311 20.482v132.36 132.359c0 7.467-2.583 14.704-7.312 20.483l-13.532 16.539c-4.728 5.779-7.312 13.016-7.312 20.482v11.395h396.875v-11.395c0-7.467-2.583-14.704-7.312-20.483l-13.532-16.539c-4.728-5.779-7.312-13.016-7.312-20.483v-132.358-132.359z" fill="#e94444"/></g><g><path d="m426.286 388.358c0 7.47 2.58 14.701 7.311 20.482l13.531 16.541c4.731 5.781 7.311 13.011 7.311 20.482v11.391h-21.282v-11.391c0-7.471-2.59-14.702-7.321-20.482l-13.531-16.541c-4.72-5.781-7.311-13.011-7.311-20.482v-264.714c0-7.471 2.59-14.711 7.311-20.482l13.531-16.542c4.73-5.781 7.321-13.021 7.321-20.482v-11.4h21.282v11.401c0 7.461-2.58 14.701-7.311 20.482l-13.531 16.542c-4.731 5.771-7.311 13.011-7.311 20.482z" fill="#d83131"/></g><g><path d="m85.718 180.824h340.565v149.765h-340.565z" fill="#f3f0f3"/></g><g><path d="m404.994 180.824h21.289v149.765h-21.289z" fill="#e2dee2"/></g><g><path d="m454.437 7.501-39.692 20.002-39.693-20.002-39.687 20.002-39.689-20.002-39.687 20.002-39.686-20.002-39.681 20.002-39.686-20.002-39.687 20.002-39.686-20.002v47.237h396.874z" fill="#cbc4cc"/></g><g><path d="m454.437 504.498-39.692-20.001-39.693 20.001-39.687-20.001-39.689 20.001-39.687-20.001-39.686 20.001-39.681-20.001-39.686 20.001-39.687-20.001-39.686 20.001v-47.236h396.874z" fill="#cbc4cc"/></g><g><path d="m454.438 7.497v47.244h-21.302v-36.513z" fill="#b5adb6"/></g><g><path d="m454.438 457.258v47.244l-21.302-10.731v-36.513z" fill="#b5adb6"/></g><g><path d="m426.283 360.742c4.143 0 7.501-3.358 7.501-7.501v-229.6c0-5.719 1.994-11.307 5.616-15.734l13.532-16.539c5.808-7.098 9.007-16.06 9.007-25.232v-58.635c0-2.604-1.351-5.021-3.568-6.386-2.217-1.366-4.985-1.483-7.308-.312l-36.317 18.301-36.319-18.301c-2.123-1.07-4.627-1.07-6.75 0l-36.312 18.301-36.313-18.301c-2.123-1.07-4.626-1.07-6.752 0l-36.311 18.301-36.31-18.301c-2.123-1.07-4.629-1.07-6.752 0l-36.305 18.301-36.31-18.301c-2.123-1.07-4.628-1.07-6.752 0l-36.311 18.301-36.31-18.301c-2.326-1.171-5.091-1.056-7.309.312-2.218 1.365-3.568 3.783-3.568 6.386v58.636c0 9.172 3.199 18.134 9.007 25.232l13.532 16.539c3.621 4.427 5.616 10.015 5.616 15.733v264.719c0 5.719-1.994 11.307-5.616 15.733l-13.532 16.539c-5.808 7.098-9.007 16.06-9.007 25.232v58.636c0 2.604 1.35 5.021 3.568 6.386 1.202.741 2.566 1.114 3.933 1.114 1.154 0 2.311-.267 3.375-.803l36.31-18.301 36.311 18.301c2.124 1.071 4.629 1.07 6.752 0l36.31-18.301 36.305 18.301c2.124 1.07 4.628 1.07 6.752 0l36.31-18.301 36.311 18.301c2.125 1.07 4.63 1.07 6.752 0l36.313-18.301 36.312 18.301c2.123 1.07 4.627 1.07 6.75 0l36.317-18.301 36.317 18.301c2.325 1.173 5.091 1.054 7.308-.312 2.217-1.365 3.568-3.783 3.568-6.386v-58.636c0-9.172-3.198-18.134-9.007-25.232l-13.532-16.539c-3.621-4.426-5.616-10.014-5.616-15.733 0-4.143-3.358-7.501-7.501-7.501s-7.501 3.358-7.501 7.501c0 9.172 3.198 18.134 9.007 25.232l13.532 16.539c3.621 4.426 5.616 10.014 5.616 15.733v3.894h-381.87v-3.894c0-5.719 1.994-11.307 5.616-15.733l13.532-16.539c5.808-7.098 9.007-16.059 9.007-25.232v-50.27h325.563v15.151c0 4.144 3.358 7.502 7.501 7.502zm20.653 104.021v27.557l-28.816-14.521c-2.123-1.071-4.627-1.071-6.75 0l-36.318 18.301-36.312-18.301c-1.062-.535-2.218-.803-3.375-.803s-2.314.268-3.375.803l-36.314 18.301-36.311-18.301c-2.123-1.071-4.628-1.071-6.752 0l-36.31 18.301-36.305-18.301c-2.124-1.07-4.628-1.072-6.752 0l-36.31 18.301-36.311-18.301c-2.123-1.07-4.628-1.072-6.752 0l-28.809 14.52v-27.556zm-381.872-445.082 28.809 14.52c2.123 1.07 4.628 1.07 6.752 0l36.311-18.301 36.31 18.301c2.123 1.07 4.629 1.07 6.752 0l36.306-18.301 36.31 18.301c2.123 1.07 4.627 1.07 6.752 0l36.31-18.301 36.313 18.301c2.123 1.07 4.627 1.07 6.75 0l36.313-18.301 36.317 18.301c2.123 1.07 4.627 1.07 6.75 0l28.816-14.521v27.557h-381.871zm28.155 303.407v-134.764h50.027c4.143 0 7.501-3.358 7.501-7.501s-3.358-7.501-7.501-7.501h-50.027v-49.682c0-9.172-3.199-18.133-9.007-25.232l-13.533-16.539c-3.621-4.426-5.616-10.014-5.616-15.733v-3.894h381.873v3.894c0 5.719-1.994 11.307-5.616 15.733l-13.533 16.539c-5.807 7.1-9.006 16.061-9.006 25.233v49.682h-240.705c-4.142 0-7.501 3.358-7.501 7.501s3.358 7.501 7.501 7.501h240.706v134.764h-325.563z"/><path d="m260.378 229.584c-.018-.046-.035-.093-.055-.139-.951-2.31-3.179-3.801-5.677-3.801-.002 0-.005 0-.008 0-2.501.003-4.729 1.501-5.675 3.816-.016.037-.03.075-.044.113l-18.877 49.564c-.983 2.58.312 5.469 2.893 6.453 2.58.98 5.47-.313 6.453-2.894l3.475-9.124h23.427l3.438 9.11c.756 2.002 2.658 3.237 4.679 3.236.586 0 1.184-.104 1.765-.323 2.583-.975 3.888-3.86 2.912-6.444zm-13.707 33.988 7.958-20.895 7.885 20.895z"/><path d="m212.889 225.495c-2.761.027-4.979 2.287-4.952 5.049l.339 34.976-26.085-37.771c-1.243-1.801-3.513-2.584-5.603-1.933-2.089.651-3.512 2.585-3.512 4.774v50.327c0 2.762 2.239 5 5 5 2.762 0 5-2.239 5-5v-34.286l24.914 36.078c1.521 2.198 4.038 3.139 6.412 2.396 2.434-.76 4.006-3.071 4.006-5.935l-.471-48.723c-.026-2.761-2.245-4.973-5.048-4.952z"/><path d="m367.025 254.745 21.524-19.784c2.033-1.869 2.166-5.033.298-7.066-1.87-2.034-5.033-2.166-7.066-.298l-18.659 17.151v-14.103c0-2.762-2.239-5-5-5s-5 2.239-5 5v50.272c0 2.762 2.239 5 5 5s5-2.239 5-5v-16.04l20.355 19.639c.971.936 2.222 1.401 3.471 1.401 1.311 0 2.618-.512 3.6-1.528 1.917-1.988 1.861-5.153-.127-7.071z"/><path d="m329.051 270.607c-.478.569-.995 1.103-1.535 1.585-2.776 2.472-6.299 3.725-10.47 3.725-11.103 0-20.136-9.033-20.136-20.136s9.033-20.136 20.136-20.136c4.036 0 7.928 1.188 11.254 3.435 2.286 1.547 5.397.944 6.942-1.344 1.546-2.288.944-5.396-1.344-6.942-4.986-3.369-10.813-5.15-16.852-5.15-16.618 0-30.137 13.519-30.137 30.137s13.519 30.137 30.137 30.137c6.604 0 12.525-2.164 17.123-6.259.901-.803 1.756-1.686 2.543-2.623 1.776-2.115 1.499-5.269-.616-7.045-2.116-1.776-5.269-1.5-7.045.616z"/><path d="m148.664 251.485c-6.383-2.354-12.31-4.922-13.902-5.622-1.419-1.063-2.104-2.746-1.843-4.566.338-2.356 2.17-4.253 4.899-5.076 7.796-2.346 14.891 3.332 15.02 3.436 2.114 1.759 5.253 1.48 7.025-.628 1.777-2.113 1.504-5.268-.61-7.045-.453-.381-11.241-9.283-24.319-5.339-6.457 1.945-11.021 7.014-11.914 13.23-.687 4.784.974 10.95 5.227 13.649 5.127 3.253 11.281 5.25 16.957 7.344 5.299 1.954 8.001 4.971 7.411 8.274-.595 3.33-4.515 6.774-10.045 6.774-5.353 0-10.517-2.172-13.813-5.81-1.854-2.046-5.016-2.202-7.063-.348-2.046 1.854-2.202 5.016-.348 7.063 5.16 5.695 13.095 9.096 21.224 9.096 9.811 0 18.362-6.456 19.891-15.017 1.159-6.497-1.855-15.01-13.797-19.415z"/></g></g></svg>